<svg id="Capa_1" enable-background="new 0 0 512 512" height="512" viewBox="0 0 512 512" width="512" xmlns="http://www.w3.org/2000/svg"><g><path d="m153.032 105c0-17.488-10.027-32.677-24.634-40.122 2.966-5.998 4.634-12.747 4.634-19.878 0-24.813-20.187-45-45-45h-40v150h60c24.814 0 45-20.187 45-45zm-75-75h10c8.271 0 15 6.729 15 15s-6.729 15-15 15h-10zm0 60h30c8.271 0 15 6.729 15 15s-6.729 15-15 15h-30z"/><path d="m237.032 120h-29.608v-120h-30v150h59.608z"/><path d="m304.032 150c24.813 0 45-20.187 45-45v-60c0-24.813-20.187-45-45-45s-45 20.187-45 45v60c0 24.813 20.187 45 45 45zm-15-105c0-8.271 6.729-15 15-15s15 6.729 15 15v60c0 8.271-6.729 15-15 15s-15-6.729-15-15z"/><path d="m418.968 150h45v-79.261h-30v49.261h-15c-8.271 0-15-6.729-15-15v-60c0-8.271 6.729-15 15-15h45v-30h-45c-24.813 0-45 20.187-45 45v60c0 24.813 20.186 45 45 45z"/><path d="m292.291 426.187c5.473-7.452 8.709-16.645 8.709-26.578 0-24.813-20.187-45-45-45s-45 20.187-45 45c0 9.934 3.236 19.126 8.709 26.578-16.02 11.388-26.491 30.096-26.491 51.204v34.609h125.564v-34.609c0-21.108-10.471-39.816-26.491-51.204zm-51.291-26.578c0-8.271 6.729-15 15-15s15 6.729 15 15-6.729 15-15 15-15-6.729-15-15zm47.782 82.391h-65.564v-4.609c0-18.076 14.706-32.782 32.782-32.782s32.782 14.706 32.782 32.782z"/><path d="m137.291 426.187c5.473-7.452 8.709-16.645 8.709-26.578 0-24.813-20.187-45-45-45s-45 20.187-45 45c0 9.934 3.236 19.126 8.709 26.578-16.02 11.388-26.491 30.096-26.491 51.204v34.609h125.564v-34.609c0-21.108-10.471-39.816-26.491-51.204zm-51.291-26.578c0-8.271 6.729-15 15-15s15 6.729 15 15-6.729 15-15 15-15-6.729-15-15zm47.782 82.391h-65.564v-4.609c0-18.076 14.706-32.782 32.782-32.782s32.782 14.706 32.782 32.782z"/><path d="m447.291 426.187c5.473-7.452 8.709-16.645 8.709-26.578 0-24.813-20.187-45-45-45s-45 20.187-45 45c0 9.934 3.236 19.126 8.709 26.578-16.02 11.388-26.491 30.096-26.491 51.204v34.609h125.564v-34.609c0-21.108-10.471-39.816-26.491-51.204zm-51.291-26.578c0-8.271 6.729-15 15-15s15 6.729 15 15-6.729 15-15 15-15-6.729-15-15zm47.782 82.391h-65.564v-4.609c0-18.076 14.706-32.782 32.782-32.782s32.782 14.706 32.782 32.782z"/><path d="m147.131 228.109c-33.708 0-61.131 27.423-61.131 61.13v27.695h30v-27.695c0-17.166 13.965-31.13 31.131-31.13h217.738c17.166 0 31.131 13.965 31.131 31.13v27.695h30v-27.695c0-33.708-27.423-61.13-61.131-61.13h-93.869v-40.435h-30v40.435z"/></g></svg>